# xmcd
#
# Track frame offsets: 
#        150
#        49229
#        106342
#        149733
#        213465
#
# Disc length: 3661 seconds
#
# Revision: 5
# Processed by: cddbd v1.5.2PL0 Copyright (c) Steve Scherf et al.
# Submitted via: ExactAudioCopy v1.0b3
#
DISCID=4d0e4b05
DTITLE=Chick Corea, Gary Burton, Sydney Symphony - The New Crystal Sil
DTITLE=ence [Concord, Disc 1]
DYEAR=2008
DGENRE=Jazz
TTITLE0=Duende
TTITLE1=Love Castle
TTITLE2=Brasilia
TTITLE3=Crystal Silence
TTITLE4=La Fiesta
EXTD=Duet with the Sydney Symphony.\nRecorded 10 and 12 May,2007 at theS
EXTD=ydney Opera House Concert Hall
EXTT0=Chick Corea
EXTT1=Chick Corea
EXTT2=Chick Corea
EXTT3=Chick Corea
EXTT4=Chick Corea
PLAYORDER=
